Fraunces-BlackOpMax.ufo
<glyph name="parenleft" format="2">
  <advance width="404"/>
  <unicode hex="0028"/>
  <outline>
    <contour>
      <point x="46" y="292" type="curve" smooth="yes"/>
      <point x="46" y="59"/>
      <point x="169" y="-98"/>
      <point x="301" y="-142" type="curve" smooth="yes"/>
      <point x="330" y="-151"/>
      <point x="360" y="-155"/>
      <point x="376" y="-155" type="curve" smooth="yes"/>
      <point x="390" y="-155"/>
      <point x="399" y="-146"/>
      <point x="399" y="-132" type="curve" smooth="yes"/>
      <point x="399" y="-123"/>
      <point x="394" y="-118"/>
      <point x="376" y="-108" type="curve" smooth="yes"/>
      <point x="283" y="-65"/>
      <point x="223" y="82"/>
      <point x="223" y="292" type="curve" smooth="yes"/>
      <point x="223" y="505"/>
      <point x="285" y="660"/>
      <point x="376" y="702" type="curve" smooth="yes"/>
      <point x="394" y="711"/>
      <point x="399" y="720"/>
      <point x="399" y="731" type="curve" smooth="yes"/>
      <point x="399" y="740"/>
      <point x="390" y="750"/>
      <point x="378" y="750" type="curve" smooth="yes"/>
      <point x="363" y="750"/>
      <point x="344" y="742"/>
      <point x="307" y="728" type="curve" smooth="yes"/>
      <point x="153" y="667"/>
      <point x="46" y="488"/>
    </contour>
  </outline>
</glyph>
<glyph name="plus" format="2">
  <advance width="498"/>
  <unicode hex="002B"/>
  <outline>
    <contour>
      <point x="15" y="303" type="curve" smooth="yes"/>
      <point x="15" y="268"/>
      <point x="47" y="239"/>
      <point x="83" y="239" type="curve" smooth="yes"/>
      <point x="121" y="239"/>
      <point x="173" y="261"/>
      <point x="252" y="261" type="curve" smooth="yes"/>
      <point x="326" y="261"/>
      <point x="381" y="239"/>
      <point x="415" y="239" type="curve" smooth="yes"/>
      <point x="456" y="239"/>
      <point x="483" y="268"/>
      <point x="483" y="303" type="curve" smooth="yes"/>
      <point x="483" y="339"/>
      <point x="455" y="369"/>
      <point x="415" y="369" type="curve" smooth="yes"/>
      <point x="381" y="369"/>
      <point x="326" y="347"/>
      <point x="252" y="347" type="curve" smooth="yes"/>
      <point x="171" y="347"/>
      <point x="121" y="369"/>
      <point x="84" y="369" type="curve" smooth="yes"/>
      <point x="50" y="369"/>
      <point x="15" y="339"/>
    </contour>
    <contour>
      <point x="253" y="68" type="curve" smooth="yes"/>
      <point x="288" y="68"/>
      <point x="317" y="99"/>
      <point x="317" y="135" type="curve" smooth="yes"/>
      <point x="317" y="173"/>
      <point x="295" y="225"/>
      <point x="295" y="305" type="curve" smooth="yes"/>
      <point x="295" y="380"/>
      <point x="316" y="435"/>
      <point x="316" y="469" type="curve" smooth="yes"/>
      <point x="316" y="510"/>
      <point x="288" y="536"/>
      <point x="253" y="536" type="curve" smooth="yes"/>
      <point x="217" y="536"/>
      <point x="187" y="509"/>
      <point x="187" y="469" type="curve" smooth="yes"/>
      <point x="187" y="435"/>
      <point x="209" y="380"/>
      <point x="209" y="305" type="curve" smooth="yes"/>
      <point x="209" y="224"/>
      <point x="187" y="173"/>
      <point x="187" y="136" type="curve" smooth="yes"/>
      <point x="187" y="103"/>
      <point x="217" y="68"/>
    </contour>
  </outline>
</glyph>
<glyph name="zero" format="2">
  <advance width="611"/>
  <unicode hex="0030"/>
  <outline>
    <contour>
      <point x="303" y="676" type="curve" smooth="yes"/>
      <point x="119" y="676"/>
      <point x="0" y="546"/>
      <point x="0" y="343" type="curve" smooth="yes"/>
      <point x="0" y="115"/>
      <point x="110" y="-10"/>
      <point x="303" y="-10" type="curve" smooth="yes"/>
      <point x="481" y="-10"/>
      <point x="613" y="113"/>
      <point x="613" y="343" type="curve" smooth="yes"/>
      <point x="613" y="549"/>
      <point x="489" y="676"/>
    </contour>
    <contour>
      <point x="403" y="312" type="curve" smooth="yes"/>
      <point x="403" y="117"/>
      <point x="362" y="46"/>
      <point x="308" y="46" type="curve" smooth="yes"/>
      <point x="243" y="46"/>
      <point x="207" y="141"/>
      <point x="207" y="367" type="curve" smooth="yes"/>
      <point x="207" y="529"/>
      <point x="240" y="620"/>
      <point x="301" y="620" type="curve" smooth="yes"/>
      <point x="366" y="620"/>
      <point x="403" y="524"/>
    </contour>
  </outline>
</glyph>
<glyph name="three" format="2">
  <advance width="473"/>
  <unicode hex="0033"/>
  <outline>
    <contour>
      <point x="220" y="358" type="line"/>
      <point x="448" y="576" type="line" smooth="yes"/>
      <point x="461" y="586"/>
      <point x="471" y="613"/>
      <point x="471" y="629" type="curve" smooth="yes"/>
      <point x="471" y="650"/>
      <point x="460" y="665"/>
      <point x="423" y="665" type="curve" smooth="yes"/>
      <point x="109" y="665" type="line" smooth="yes"/>
      <point x="70" y="665"/>
      <point x="42" y="653"/>
      <point x="41" y="633" type="curve" smooth="yes"/>
      <point x="21" y="465" type="line" smooth="yes"/>
      <point x="19" y="450"/>
      <point x="32" y="444"/>
      <point x="50" y="444" type="curve" smooth="yes"/>
      <point x="61" y="444"/>
      <point x="69" y="451"/>
      <point x="73" y="456" type="curve" smooth="yes"/>
      <point x="106" y="516" type="line" smooth="yes"/>
      <point x="116" y="533"/>
      <point x="133" y="539"/>
      <point x="158" y="539" type="curve" smooth="yes"/>
      <point x="426" y="539" type="line"/>
      <point x="406" y="621" type="line"/>
      <point x="165" y="384" type="line" smooth="yes"/>
      <point x="150" y="371"/>
      <point x="137" y="356"/>
      <point x="137" y="339" type="curve" smooth="yes"/>
      <point x="137" y="325"/>
      <point x="153" y="316"/>
      <point x="173" y="316" type="curve" smooth="yes"/>
      <point x="205" y="316" type="line" smooth="yes"/>
      <point x="250" y="316"/>
      <point x="281" y="276"/>
      <point x="281" y="186" type="curve" smooth="yes"/>
      <point x="281" y="101"/>
      <point x="251" y="29"/>
      <point x="208" y="29" type="curve" smooth="yes"/>
      <point x="182" y="28"/>
      <point x="176" y="63"/>
      <point x="176" y="106" type="curve" smooth="yes"/>
      <point x="176" y="153" type="line" smooth="yes"/>
      <point x="176" y="207"/>
      <point x="140" y="245"/>
      <point x="97" y="245" type="curve" smooth="yes"/>
      <point x="39" y="245"/>
      <point x="-8" y="201"/>
      <point x="-8" y="143" type="curve" smooth="yes"/>
      <point x="-8" y="58"/>
      <point x="73" y="-10"/>
      <point x="232" y="-10" type="curve" smooth="yes"/>
      <point x="376" y="-10"/>
      <point x="462" y="76"/>
      <point x="462" y="188" type="curve" smooth="yes"/>
      <point x="462" y="314"/>
      <point x="365" y="368"/>
      <point x="215" y="368" type="curve" smooth="yes"/>
      <point x="208" y="368"/>
      <point x="193" y="368"/>
      <point x="184" y="368" type="curve"/>
    </contour>
  </outline>
</glyph>
<glyph name="five" format="2">
  <advance width="496"/>
  <unicode hex="0035"/>
  <outline>
    <contour>
      <point x="7" y="125" type="curve" smooth="yes"/>
      <point x="7" y="43"/>
      <point x="78" y="-10"/>
      <point x="223" y="-10" type="curve" smooth="yes"/>
      <point x="378" y="-10"/>
      <point x="497" y="73"/>
      <point x="497" y="201" type="curve" smooth="yes"/>
      <point x="497" y="321"/>
      <point x="402" y="396"/>
      <point x="262" y="396" type="curve" smooth="yes"/>
      <point x="180" y="396"/>
      <point x="105" y="369"/>
      <point x="63" y="307" type="curve"/>
      <point x="111" y="342" type="line"/>
      <point x="111" y="596" type="line"/>
      <point x="65" y="531" type="line"/>
      <point x="126" y="501"/>
      <point x="201" y="464"/>
      <point x="310" y="464" type="curve" smooth="yes"/>
      <point x="478" y="464"/>
      <point x="514" y="524"/>
      <point x="514" y="643" type="curve" smooth="yes"/>
      <point x="514" y="669"/>
      <point x="497" y="684"/>
      <point x="482" y="684" type="curve" smooth="yes"/>
      <point x="470" y="684"/>
      <point x="457" y="673"/>
      <point x="460" y="663" type="curve" smooth="yes"/>
      <point x="470" y="639"/>
      <point x="446" y="616"/>
      <point x="388" y="616" type="curve" smooth="yes"/>
      <point x="310" y="616"/>
      <point x="172" y="682"/>
      <point x="104" y="682" type="curve" smooth="yes"/>
      <point x="65" y="682"/>
      <point x="46" y="660"/>
      <point x="46" y="624" type="curve" smooth="yes"/>
      <point x="46" y="301" type="line" smooth="yes"/>
      <point x="46" y="283"/>
      <point x="62" y="266"/>
      <point x="80" y="266" type="curve" smooth="yes"/>
      <point x="94" y="266"/>
      <point x="96" y="270"/>
      <point x="112" y="284" type="curve" smooth="yes"/>
      <point x="150" y="330"/>
      <point x="183" y="339"/>
      <point x="213" y="339" type="curve" smooth="yes"/>
      <point x="271" y="339"/>
      <point x="305" y="285"/>
      <point x="305" y="179" type="curve" smooth="yes"/>
      <point x="305" y="85"/>
      <point x="270" y="43"/>
      <point x="220" y="43" type="curve" smooth="yes"/>
      <point x="201" y="43"/>
      <point x="199" y="70"/>
      <point x="199" y="116" type="curve" smooth="yes"/>
      <point x="199" y="128" type="line" smooth="yes"/>
      <point x="199" y="191"/>
      <point x="163" y="234"/>
      <point x="120" y="234" type="curve" smooth="yes"/>
      <point x="53" y="234"/>
      <point x="7" y="190"/>
    </contour>
  </outline>
</glyph>
<glyph name="seven" format="2">
  <advance width="473"/>
  <unicode hex="0037"/>
  <outline>
    <contour>
      <point x="400" y="578" type="curve" smooth="yes"/>
      <point x="320" y="475" type="line" smooth="yes"/>
      <point x="159" y="274"/>
      <point x="113" y="162"/>
      <point x="113" y="99" type="curve" smooth="yes"/>
      <point x="113" y="25"/>
      <point x="150" y="-10"/>
      <point x="206" y="-10" type="curve" smooth="yes"/>
      <point x="289" y="-10"/>
      <point x="337" y="35"/>
      <point x="336" y="95" type="curve" smooth="yes"/>
      <point x="336" y="163"/>
      <point x="284" y="188"/>
      <point x="284" y="255" type="curve" smooth="yes"/>
      <point x="284" y="304"/>
      <point x="315" y="359"/>
      <point x="339" y="385" type="curve" smooth="yes"/>
      <point x="458" y="550" type="line" smooth="yes"/>
      <point x="500" y="597"/>
      <point x="506" y="607"/>
      <point x="506" y="617" type="curve" smooth="yes"/>
      <point x="506" y="645"/>
      <point x="475" y="665"/>
      <point x="432" y="665" type="curve" smooth="yes"/>
      <point x="90" y="665" type="line" smooth="yes"/>
      <point x="60" y="665"/>
      <point x="40" y="653"/>
      <point x="39" y="633" type="curve" smooth="yes"/>
      <point x="18" y="440" type="line" smooth="yes"/>
      <point x="16" y="414"/>
      <point x="31" y="402"/>
      <point x="49" y="402" type="curve" smooth="yes"/>
      <point x="67" y="402"/>
      <point x="80" y="410"/>
      <point x="84" y="424" type="curve" smooth="yes"/>
      <point x="119" y="503" type="line" smooth="yes"/>
      <point x="123" y="520"/>
      <point x="137" y="526"/>
      <point x="154" y="526" type="curve" smooth="yes"/>
      <point x="436" y="526" type="line"/>
      <point x="425" y="640" type="line"/>
      <point x="425" y="622"/>
      <point x="419" y="602"/>
    </contour>
  </outline>
</glyph>
<glyph name="A" format="2">
  <advance width="625"/>
  <unicode hex="0041"/>
  <anchor x="321" y="735" name="center"/>
  <outline>
    <contour>
      <point x="147" y="265" type="line"/>
      <point x="144" y="259" type="line"/>
      <point x="379" y="259" type="line"/>
      <point x="377" y="265" type="line"/>
    </contour>
    <contour>
      <point x="177" y="2" type="curve" smooth="yes"/>
      <point x="177" y="4"/>
      <point x="176" y="4"/>
      <point x="174" y="5" type="curve" smooth="yes"/>
      <point x="166" y="9" type="line" smooth="yes"/>
      <point x="135" y="24"/>
      <point x="100" y="84"/>
      <point x="121" y="158" type="curve"/>
      <point x="256" y="642" type="line" smooth="yes"/>
      <point x="261" y="642" type="line"/>
      <point x="403" y="49" type="line" smooth="yes"/>
      <point x="407" y="32"/>
      <point x="400" y="20"/>
      <point x="388" y="14" type="curve" smooth="yes"/>
      <point x="382" y="11" type="line" smooth="yes"/>
      <point x="379" y="10"/>
      <point x="378" y="8"/>
      <point x="378" y="4" type="curve" smooth="yes"/>
      <point x="378" y="1"/>
      <point x="380" y="0"/>
      <point x="383" y="0" type="curve" smooth="yes"/>
      <point x="615" y="0" type="line" smooth="yes"/>
      <point x="619" y="0"/>
      <point x="620" y="2"/>
      <point x="620" y="6" type="curve" smooth="yes"/>
      <point x="620" y="8"/>
      <point x="618" y="9"/>
      <point x="616" y="10" type="curve" smooth="yes"/>
      <point x="604" y="16"/>
      <point x="597" y="24"/>
      <point x="594" y="36" type="curve" smooth="yes"/>
      <point x="441" y="654" type="line" smooth="yes"/>
      <point x="440" y="658"/>
      <point x="440" y="661"/>
      <point x="440" y="664" type="curve" smooth="yes"/>
      <point x="440" y="675"/>
      <point x="445" y="682"/>
      <point x="454" y="689" type="curve" smooth="yes"/>
      <point x="457" y="691"/>
      <point x="459" y="693"/>
      <point x="459" y="696" type="curve" smooth="yes"/>
      <point x="459" y="699"/>
      <point x="457" y="700"/>
      <point x="453" y="700" type="curve" smooth="yes"/>
      <point x="227" y="700" type="line" smooth="yes"/>
      <point x="224" y="700"/>
      <point x="220" y="698"/>
      <point x="220" y="695" type="curve" smooth="yes"/>
      <point x="220" y="692"/>
      <point x="221" y="690"/>
      <point x="226" y="687" type="curve" smooth="yes"/>
      <point x="243" y="675"/>
      <point x="249" y="665"/>
      <point x="250" y="652" type="curve" smooth="yes"/>
      <point x="250" y="647"/>
      <point x="249" y="640"/>
      <point x="247" y="633" type="curve" smooth="yes"/>
      <point x="115" y="161" type="line" smooth="yes"/>
      <point x="93" y="82"/>
      <point x="68" y="37"/>
      <point x="17" y="5" type="curve" smooth="yes"/>
      <point x="16" y="4"/>
      <point x="15" y="3"/>
      <point x="15" y="2" type="curve" smooth="yes"/>
      <point x="15" y="1"/>
      <point x="16" y="0"/>
      <point x="18" y="0" type="curve" smooth="yes"/>
      <point x="174" y="0" type="line" smooth="yes"/>
      <point x="176" y="0"/>
      <point x="177" y="1"/>
    </contour>
  </outline>
</glyph>
<glyph name="H" format="2">
  <advance width="793"/>
  <unicode hex="0048"/>
  <outline>
    <contour>
      <point x="195" y="340" type="line"/>
      <point x="195" y="334" type="line"/>
      <point x="579" y="334" type="line"/>
      <point x="579" y="340" type="line"/>
    </contour>
    <component base="I"/>
    <component base="I" xOffset="399"/>
  </outline>
</glyph>
<glyph name="T" format="2">
  <advance width="647"/>
  <unicode hex="0054"/>
  <outline>
    <contour>
      <point x="151" y="700" type="line" smooth="yes"/>
      <point x="122" y="700"/>
      <point x="109" y="706"/>
      <point x="102" y="706" type="curve" smooth="yes"/>
      <point x="74" y="706"/>
      <point x="50" y="689"/>
      <point x="48" y="666" type="curve" smooth="yes"/>
      <point x="15" y="501" type="line" smooth="yes"/>
      <point x="12" y="472"/>
      <point x="21" y="457"/>
      <point x="43" y="457" type="curve" smooth="yes"/>
      <point x="53" y="457"/>
      <point x="65" y="460"/>
      <point x="79" y="491" type="curve" smooth="yes"/>
      <point x="122" y="600"/>
      <point x="141" y="638"/>
      <point x="197" y="638" type="curve" smooth="yes"/>
      <point x="231" y="638" type="line"/>
      <point x="231" y="102" type="line" smooth="yes"/>
      <point x="231" y="88"/>
      <point x="222" y="84"/>
      <point x="203" y="77" type="curve" smooth="yes"/>
      <point x="172" y="68" type="line" smooth="yes"/>
      <point x="153" y="63"/>
      <point x="142" y="51"/>
      <point x="142" y="33" type="curve" smooth="yes"/>
      <point x="142" y="12"/>
      <point x="154" y="0"/>
      <point x="172" y="0" type="curve" smooth="yes"/>
      <point x="476" y="0" type="line" smooth="yes"/>
      <point x="493" y="0"/>
      <point x="504" y="11"/>
      <point x="504" y="31" type="curve" smooth="yes"/>
      <point x="504" y="50"/>
      <point x="493" y="59"/>
      <point x="474" y="67" type="curve" smooth="yes"/>
      <point x="435" y="78" type="line" smooth="yes"/>
      <point x="423" y="84"/>
      <point x="415" y="88"/>
      <point x="415" y="102" type="curve" smooth="yes"/>
      <point x="415" y="638" type="line"/>
      <point x="449" y="638" type="line" smooth="yes"/>
      <point x="490" y="638"/>
      <point x="533" y="594"/>
      <point x="563" y="490" type="curve" smooth="yes"/>
      <point x="577" y="456"/>
      <point x="593" y="452"/>
      <point x="607" y="452" type="curve" smooth="yes"/>
      <point x="630" y="452"/>
      <point x="637" y="463"/>
      <point x="633" y="495" type="curve" smooth="yes"/>
      <point x="609" y="668" type="line" smooth="yes"/>
      <point x="606" y="691"/>
      <point x="582" y="710"/>
      <point x="562" y="710" type="curve" smooth="yes"/>
      <point x="546" y="710"/>
      <point x="530" y="700"/>
      <point x="507" y="700" type="curve" smooth="yes"/>
    </contour>
  </outline>
</glyph>
<glyph name="b" format="2">
  <advance width="548"/>
  <unicode hex="0062"/>
  <outline>
    <contour>
      <point x="36" y="642" type="curve" smooth="yes"/>
      <point x="34" y="642" type="line" smooth="yes"/>
      <point x="33" y="642"/>
      <point x="36" y="630"/>
      <point x="36" y="615" type="curve" smooth="yes"/>
      <point x="36" y="17" type="line" smooth="yes"/>
      <point x="36" y="4"/>
      <point x="45" y="-5"/>
      <point x="57" y="-5" type="curve" smooth="yes"/>
      <point x="75" y="-5"/>
      <point x="90" y="-4"/>
      <point x="121" y="6" type="curve" smooth="yes"/>
      <point x="211" y="42" type="line" smooth="yes"/>
      <point x="211" y="698" type="line" smooth="yes"/>
      <point x="211" y="717"/>
      <point x="196" y="733"/>
      <point x="175" y="733" type="curve" smooth="yes"/>
      <point x="164" y="733"/>
      <point x="163" y="729"/>
      <point x="146" y="729" type="curve" smooth="yes"/>
      <point x="11" y="690" type="line" smooth="yes"/>
      <point x="2" y="694"/>
      <point x="-6" y="681"/>
      <point x="-6" y="664" type="curve" smooth="yes"/>
      <point x="-6" y="650"/>
      <point x="10" y="642"/>
    </contour>
    <contour>
      <point x="144" y="306" type="line"/>
      <point x="163" y="336"/>
      <point x="220" y="365"/>
      <point x="282" y="365" type="curve" smooth="yes"/>
      <point x="343" y="365"/>
      <point x="363" y="282"/>
      <point x="363" y="208" type="curve" smooth="yes"/>
      <point x="363" y="140"/>
      <point x="324" y="74"/>
      <point x="247" y="74" type="curve" smooth="yes"/>
      <point x="213" y="74"/>
      <point x="173" y="85"/>
      <point x="151" y="119" type="curve"/>
      <point x="138" y="74" type="line"/>
      <point x="176" y="20"/>
      <point x="248" y="-9"/>
      <point x="310" y="-9" type="curve" smooth="yes"/>
      <point x="463" y="-9"/>
      <point x="547" y="96"/>
      <point x="547" y="240" type="curve" smooth="yes"/>
      <point x="547" y="359"/>
      <point x="469" y="458"/>
      <point x="331" y="458" type="curve" smooth="yes"/>
      <point x="254" y="458"/>
      <point x="173" y="405"/>
      <point x="135" y="355" type="curve"/>
    </contour>
  </outline>
</glyph>
<glyph name="e" format="2">
  <advance width="469"/>
  <unicode hex="0065"/>
  <anchor x="197" y="489" name="center"/>
  <outline>
    <contour>
      <point x="459" y="248" type="curve" smooth="yes"/>
      <point x="459" y="368"/>
      <point x="379" y="458"/>
      <point x="251" y="458" type="curve" smooth="yes"/>
      <point x="104.0" y="458"/>
      <point x="10" y="370.0"/>
      <point x="10" y="211" type="curve" smooth="yes"/>
      <point x="10" y="81"/>
      <point x="107" y="-10"/>
      <point x="243" y="-10" type="curve" smooth="yes"/>
      <point x="365.42790697674417" y="-10.0"/>
      <point x="457.0" y="75.71428571428572"/>
      <point x="457" y="190" type="curve" smooth="yes"/>
      <point x="457.0" y="193.88888888888889"/>
      <point x="455.4" y="195.0"/>
      <point x="453" y="195" type="curve" smooth="yes"/>
      <point x="452.0" y="195.0"/>
      <point x="450" y="194"/>
      <point x="450" y="191" type="curve" smooth="yes"/>
      <point x="450.0" y="129"/>
      <point x="399" y="89.0"/>
      <point x="325" y="89" type="curve" smooth="yes"/>
      <point x="230" y="89"/>
      <point x="169" y="149"/>
      <point x="169" y="287" type="curve" smooth="yes"/>
      <point x="169" y="410.0"/>
      <point x="193" y="447"/>
      <point x="222" y="447" type="curve" smooth="yes"/>
      <point x="250.0" y="447.0"/>
      <point x="281.0" y="393.0"/>
      <point x="281" y="259" type="curve" smooth="yes"/>
      <point x="281" y="252"/>
      <point x="278" y="248"/>
      <point x="272" y="248" type="curve" smooth="yes"/>
      <point x="130" y="248" type="line"/>
      <point x="130" y="236" type="line"/>
      <point x="445" y="236" type="line" smooth="yes"/>
      <point x="455" y="236"/>
      <point x="459" y="241"/>
    </contour>
  </outline>
</glyph>
<glyph name="f" format="2">
  <advance width="338"/>
  <unicode hex="0066"/>
  <outline>
    <contour>
      <point x="243" y="33" type="curve" smooth="yes"/>
      <point x="243" y="435" type="line"/>
      <point x="306" y="435" type="line" smooth="yes"/>
      <point x="316" y="435"/>
      <point x="323" y="438"/>
      <point x="323" y="444" type="curve" smooth="yes"/>
      <point x="323" y="447"/>
      <point x="321" y="448"/>
      <point x="316" y="448" type="curve" smooth="yes"/>
      <point x="234" y="448" type="line"/>
      <point x="242" y="438" type="line"/>
      <point x="242" y="441"/>
      <point x="242" y="443"/>
      <point x="242" y="445" type="curve" smooth="yes"/>
      <point x="242.0" y="501.1010638297872"/>
      <point x="101.0" y="540.0"/>
      <point x="101" y="644" type="curve" smooth="yes"/>
      <point x="101.0" y="683.0"/>
      <point x="119.13333333333333" y="703.0"/>
      <point x="152" y="703" type="curve" smooth="yes"/>
      <point x="176.48000000000002" y="703.0"/>
      <point x="186" y="689"/>
      <point x="186" y="651" type="curve" smooth="yes"/>
      <point x="186" y="601" type="line" smooth="yes"/>
      <point x="186" y="551.0540540540541"/>
      <point x="219" y="517"/>
      <point x="264" y="517" type="curve" smooth="yes"/>
      <point x="308.0" y="517.0"/>
      <point x="338.0" y="542.1428571428571"/>
      <point x="338" y="597" type="curve" smooth="yes"/>
      <point x="338.0" y="661.53125"/>
      <point x="295.39130434782606" y="715.0"/>
      <point x="198" y="715" type="curve" smooth="yes"/>
      <point x="83" y="715"/>
      <point x="21" y="659"/>
      <point x="21" y="567" type="curve" smooth="yes"/>
      <point x="21" y="504"/>
      <point x="67" y="475"/>
      <point x="67" y="444" type="curve" smooth="yes"/>
      <point x="67" y="442" type="line"/>
      <point x="75" y="448" type="line"/>
      <point x="13" y="448" type="line" smooth="yes"/>
      <point x="9.666666666666668" y="448"/>
      <point x="8.0" y="446.0"/>
      <point x="8" y="444" type="curve" smooth="yes"/>
      <point x="8.0" y="442.2857142857143"/>
      <point x="9" y="441"/>
      <point x="12" y="440" type="curve" smooth="yes"/>
      <point x="61" y="425" type="line" smooth="yes"/>
      <point x="65" y="424"/>
      <point x="67" y="420"/>
      <point x="67" y="416" type="curve" smooth="yes"/>
      <point x="67" y="28" type="line" smooth="yes"/>
      <point x="67" y="21.53846153846154"/>
      <point x="64" y="18"/>
      <point x="57" y="16" type="curve" smooth="yes"/>
      <point x="22" y="7" type="line" smooth="yes"/>
      <point x="18" y="6"/>
      <point x="17.0" y="5.285714285714286"/>
      <point x="17" y="3" type="curve" smooth="yes"/>
      <point x="17.0" y="1.0"/>
      <point x="18.714285714285715" y="0"/>
      <point x="21" y="0" type="curve" smooth="yes"/>
      <point x="307" y="0" type="line" smooth="yes"/>
      <point x="311" y="0"/>
      <point x="312" y="1"/>
      <point x="312" y="4" type="curve" smooth="yes"/>
      <point x="312" y="7"/>
      <point x="309" y="8"/>
      <point x="305" y="9" type="curve" smooth="yes"/>
      <point x="255" y="18" type="line" smooth="yes"/>
      <point x="246" y="20"/>
      <point x="243" y="25"/>
    </contour>
  </outline>
</glyph>
<glyph name="h" format="2">
  <advance width="565"/>
  <unicode hex="0068"/>
  <outline>
    <contour>
      <point x="214" y="339" type="line" smooth="yes"/>
      <point x="232" y="356" type="line" smooth="yes"/>
      <point x="248" y="371"/>
      <point x="265" y="379"/>
      <point x="289" y="379" type="curve" smooth="yes"/>
      <point x="317" y="379"/>
      <point x="337" y="354"/>
      <point x="337" y="319" type="curve" smooth="yes"/>
      <point x="337" y="36" type="line" smooth="yes"/>
      <point x="337.0" y="23.0"/>
      <point x="334" y="14"/>
      <point x="322" y="11" type="curve" smooth="yes"/>
      <point x="309" y="8" type="line" smooth="yes"/>
      <point x="305" y="7"/>
      <point x="304.0" y="6"/>
      <point x="304" y="4" type="curve" smooth="yes"/>
      <point x="304.0" y="1"/>
      <point x="305" y="0"/>
      <point x="308" y="0" type="curve" smooth="yes"/>
      <point x="534" y="0" type="line" smooth="yes"/>
      <point x="539" y="0"/>
      <point x="542.0" y="2"/>
      <point x="542" y="4" type="curve" smooth="yes"/>
      <point x="542.0" y="7"/>
      <point x="539" y="8"/>
      <point x="536" y="9" type="curve" smooth="yes"/>
      <point x="524" y="12" type="line" smooth="yes"/>
      <point x="518" y="13"/>
      <point x="515.0" y="17.0"/>
      <point x="515" y="25" type="curve" smooth="yes"/>
      <point x="515" y="339" type="line" smooth="yes"/>
      <point x="515" y="423"/>
      <point x="473" y="458"/>
      <point x="412" y="458" type="curve" smooth="yes"/>
      <point x="363" y="458"/>
      <point x="298" y="431"/>
      <point x="226" y="363" type="curve" smooth="yes"/>
      <point x="207" y="345" type="line"/>
    </contour>
    <component base="l"/>
  </outline>
</glyph>
<glyph name="m" format="2">
  <advance width="856"/>
  <unicode hex="006D"/>
  <outline>
    <contour>
      <point x="218" y="339" type="line" smooth="yes"/>
      <point x="236" y="356" type="line" smooth="yes"/>
      <point x="252" y="371"/>
      <point x="269" y="379"/>
      <point x="293" y="379" type="curve" smooth="yes"/>
      <point x="321" y="379"/>
      <point x="341" y="354"/>
      <point x="341" y="319" type="curve" smooth="yes"/>
      <point x="341" y="36" type="line" smooth="yes"/>
      <point x="341" y="23"/>
      <point x="338" y="14"/>
      <point x="326" y="11" type="curve" smooth="yes"/>
      <point x="313" y="8" type="line" smooth="yes"/>
      <point x="309" y="7"/>
      <point x="308" y="6"/>
      <point x="308" y="4" type="curve" smooth="yes"/>
      <point x="308" y="1"/>
      <point x="309" y="0"/>
      <point x="312" y="0" type="curve" smooth="yes"/>
      <point x="538" y="0" type="line" smooth="yes"/>
      <point x="543" y="0"/>
      <point x="546" y="2"/>
      <point x="546" y="4" type="curve" smooth="yes"/>
      <point x="546" y="7"/>
      <point x="543" y="8"/>
      <point x="540" y="9" type="curve" smooth="yes"/>
      <point x="528" y="12" type="line" smooth="yes"/>
      <point x="522" y="13"/>
      <point x="519" y="17"/>
      <point x="519" y="25" type="curve" smooth="yes"/>
      <point x="519" y="339" type="line" smooth="yes"/>
      <point x="519" y="423"/>
      <point x="477" y="458"/>
      <point x="416" y="458" type="curve" smooth="yes"/>
      <point x="367" y="458"/>
      <point x="302" y="431"/>
      <point x="230" y="363" type="curve" smooth="yes"/>
      <point x="211" y="345" type="line"/>
    </contour>
    <contour>
      <point x="232" y="447" type="line" smooth="yes"/>
      <point x="232" y="451"/>
      <point x="230" y="455"/>
      <point x="225" y="455" type="curve" smooth="yes"/>
      <point x="221" y="455"/>
      <point x="218" y="454"/>
      <point x="212" y="453" type="curve" smooth="yes"/>
      <point x="22" y="410" type="line" smooth="yes"/>
      <point x="18" y="409"/>
      <point x="16" y="407"/>
      <point x="16" y="405" type="curve" smooth="yes"/>
      <point x="16" y="403"/>
      <point x="18" y="401"/>
      <point x="21" y="401" type="curve" smooth="yes"/>
      <point x="43" y="401" type="line" smooth="yes"/>
      <point x="49" y="401"/>
      <point x="51" y="397"/>
      <point x="51" y="391" type="curve" smooth="yes"/>
      <point x="51" y="29" type="line" smooth="yes"/>
      <point x="51" y="21"/>
      <point x="48" y="15"/>
      <point x="39" y="13" type="curve" smooth="yes"/>
      <point x="21" y="9" type="line" smooth="yes"/>
      <point x="17" y="8"/>
      <point x="14" y="6"/>
      <point x="14" y="4" type="curve" smooth="yes"/>
      <point x="14" y="2"/>
      <point x="16" y="0"/>
      <point x="20" y="0" type="curve" smooth="yes"/>
      <point x="263" y="0" type="line" smooth="yes"/>
      <point x="267" y="0"/>
      <point x="269" y="1"/>
      <point x="269" y="4" type="curve" smooth="yes"/>
      <point x="269" y="6"/>
      <point x="268" y="7"/>
      <point x="264" y="8" type="curve" smooth="yes"/>
      <point x="245" y="12" type="line" smooth="yes"/>
      <point x="237" y="14"/>
      <point x="232" y="22"/>
      <point x="232" y="31" type="curve" smooth="yes"/>
    </contour>
    <contour>
      <point x="506" y="339" type="line" smooth="yes"/>
      <point x="521" y="359" type="line" smooth="yes"/>
      <point x="530" y="371"/>
      <point x="543" y="379"/>
      <point x="559" y="379" type="curve" smooth="yes"/>
      <point x="588" y="379"/>
      <point x="606" y="354"/>
      <point x="609" y="319" type="curve" smooth="yes"/>
      <point x="634" y="38" type="line" smooth="yes"/>
      <point x="635" y="24"/>
      <point x="631" y="14"/>
      <point x="619" y="11" type="curve" smooth="yes"/>
      <point x="606" y="8" type="line" smooth="yes"/>
      <point x="602" y="7"/>
      <point x="601" y="6"/>
      <point x="601" y="4" type="curve" smooth="yes"/>
      <point x="601" y="2"/>
      <point x="602" y="0"/>
      <point x="605" y="0" type="curve" smooth="yes"/>
      <point x="843" y="0" type="line" smooth="yes"/>
      <point x="846" y="0"/>
      <point x="848" y="1"/>
      <point x="848" y="4" type="curve" smooth="yes"/>
      <point x="848" y="6"/>
      <point x="846" y="7"/>
      <point x="843" y="8" type="curve" smooth="yes"/>
      <point x="832" y="11" type="line" smooth="yes"/>
      <point x="826" y="13"/>
      <point x="822" y="17"/>
      <point x="821" y="27" type="curve" smooth="yes"/>
      <point x="787" y="338" type="line" smooth="yes"/>
      <point x="778" y="423"/>
      <point x="731" y="458"/>
      <point x="671" y="458" type="curve" smooth="yes"/>
      <point x="614" y="458"/>
      <point x="560" y="426"/>
      <point x="515" y="366" type="curve" smooth="yes"/>
      <point x="499" y="345" type="line"/>
    </contour>
  </outline>
</glyph>
<glyph name="r" format="2">
  <advance width="438"/>
  <unicode hex="0072"/>
  <outline>
    <contour>
      <point x="228" y="290" type="line"/>
      <point x="261" y="410"/>
      <point x="298" y="458"/>
      <point x="351" y="458" type="curve" smooth="yes"/>
      <point x="404" y="458"/>
      <point x="433" y="422"/>
      <point x="433" y="349" type="curve" smooth="yes"/>
      <point x="433" y="277"/>
      <point x="401" y="243"/>
      <point x="357" y="243" type="curve" smooth="yes"/>
      <point x="323" y="243"/>
      <point x="303" y="261"/>
      <point x="285" y="291" type="curve" smooth="yes"/>
      <point x="274" y="308"/>
      <point x="268" y="313"/>
      <point x="257" y="313" type="curve" smooth="yes"/>
      <point x="240" y="313"/>
      <point x="232" y="298"/>
      <point x="232" y="265" type="curve"/>
    </contour>
    <contour>
      <point x="232" y="447" type="curve" smooth="yes"/>
      <point x="232" y="37" type="line" smooth="yes"/>
      <point x="232" y="28"/>
      <point x="237" y="20"/>
      <point x="245" y="18" type="curve" smooth="yes"/>
      <point x="294" y="8" type="line" smooth="yes"/>
      <point x="298" y="7"/>
      <point x="299" y="6"/>
      <point x="299" y="4" type="curve" smooth="yes"/>
      <point x="299" y="1"/>
      <point x="297" y="0"/>
      <point x="293" y="0" type="curve" smooth="yes"/>
      <point x="20" y="0" type="line" smooth="yes"/>
      <point x="16" y="0"/>
      <point x="14" y="2"/>
      <point x="14" y="4" type="curve" smooth="yes"/>
      <point x="14" y="6"/>
      <point x="17" y="8"/>
      <point x="21" y="9" type="curve" smooth="yes"/>
      <point x="39" y="13" type="line" smooth="yes"/>
      <point x="48" y="15"/>
      <point x="51" y="21"/>
      <point x="51" y="29" type="curve" smooth="yes"/>
      <point x="51" y="391" type="line" smooth="yes"/>
      <point x="51" y="397"/>
      <point x="49" y="401"/>
      <point x="43" y="401" type="curve" smooth="yes"/>
      <point x="21" y="401" type="line" smooth="yes"/>
      <point x="18" y="401"/>
      <point x="16" y="403"/>
      <point x="16" y="405" type="curve" smooth="yes"/>
      <point x="16" y="407"/>
      <point x="18" y="409"/>
      <point x="22" y="410" type="curve" smooth="yes"/>
      <point x="212" y="453" type="line" smooth="yes"/>
      <point x="218" y="454"/>
      <point x="221" y="455"/>
      <point x="225" y="455" type="curve" smooth="yes"/>
      <point x="230" y="455"/>
      <point x="232" y="451"/>
    </contour>
  </outline>
</glyph>
<glyph name="s" format="2">
  <advance width="426"/>
  <unicode hex="0073"/>
  <outline>
    <contour>
      <point x="225" y="1" type="curve" smooth="yes"/>
      <point x="165" y="1"/>
      <point x="110" y="46"/>
      <point x="38" y="153" type="curve" smooth="yes"/>
      <point x="35" y="157"/>
      <point x="33" y="159"/>
      <point x="31" y="159" type="curve" smooth="yes"/>
      <point x="29" y="159"/>
      <point x="27" y="156"/>
      <point x="27" y="152" type="curve" smooth="yes"/>
      <point x="27" y="151"/>
      <point x="28" y="144"/>
      <point x="29" y="138" type="curve" smooth="yes"/>
      <point x="47" y="7" type="line" smooth="yes"/>
      <point x="48" y="-3"/>
      <point x="53" y="-7"/>
      <point x="59" y="-7" type="curve" smooth="yes"/>
      <point x="70" y="-7"/>
      <point x="131" y="21"/>
      <point x="139" y="21" type="curve" smooth="yes"/>
      <point x="145" y="21"/>
      <point x="180" y="-10"/>
      <point x="245" y="-10" type="curve" smooth="yes"/>
      <point x="337" y="-10"/>
      <point x="413" y="47"/>
      <point x="413" y="141" type="curve" smooth="yes"/>
      <point x="413" y="214"/>
      <point x="372" y="273"/>
      <point x="252" y="306" type="curve" smooth="yes"/>
      <point x="165" y="330"/>
      <point x="142" y="350"/>
      <point x="142" y="383" type="curve" smooth="yes"/>
      <point x="142" y="424"/>
      <point x="167" y="452"/>
      <point x="214" y="452" type="curve" smooth="yes"/>
      <point x="283" y="452"/>
      <point x="325" y="417"/>
      <point x="396" y="283" type="curve" smooth="yes"/>
      <point x="398" y="280"/>
      <point x="400" y="279"/>
      <point x="401" y="279" type="curve" smooth="yes"/>
      <point x="404" y="279"/>
      <point x="406" y="282"/>
      <point x="406" y="284" type="curve" smooth="yes"/>
      <point x="406" y="286"/>
      <point x="406" y="287"/>
      <point x="405" y="292" type="curve" smooth="yes"/>
      <point x="383" y="451" type="line" smooth="yes"/>
      <point x="382" y="457"/>
      <point x="378" y="458"/>
      <point x="374" y="458" type="curve" smooth="yes"/>
      <point x="364" y="458"/>
      <point x="314" y="436"/>
      <point x="302" y="436" type="curve" smooth="yes"/>
      <point x="294" y="436"/>
      <point x="265" y="458"/>
      <point x="215" y="458" type="curve" smooth="yes"/>
      <point x="81" y="458"/>
      <point x="9" y="400"/>
      <point x="9" y="313" type="curve" smooth="yes"/>
      <point x="9" y="238"/>
      <point x="42" y="178"/>
      <point x="186" y="132" type="curve" smooth="yes"/>
      <point x="259" y="108"/>
      <point x="282" y="89"/>
      <point x="282" y="55" type="curve" smooth="yes"/>
      <point x="282" y="22"/>
      <point x="261" y="1"/>
    </contour>
  </outline>
</glyph>
<glyph name="t" format="2">
  <advance width="344"/>
  <unicode hex="0074"/>
  <outline>
    <contour>
      <point x="40" y="429" type="line" smooth="yes"/>
      <point x="45" y="428"/>
      <point x="46" y="426"/>
      <point x="46" y="420" type="curve" smooth="yes"/>
      <point x="46" y="124" type="line" smooth="yes"/>
      <point x="46" y="29"/>
      <point x="98" y="-15"/>
      <point x="197" y="-15" type="curve" smooth="yes"/>
      <point x="287" y="-15"/>
      <point x="338" y="32"/>
      <point x="338" y="132" type="curve" smooth="yes"/>
      <point x="338" y="134"/>
      <point x="337" y="136"/>
      <point x="335" y="136" type="curve" smooth="yes"/>
      <point x="334" y="136"/>
      <point x="332" y="134"/>
      <point x="332" y="132" type="curve" smooth="yes"/>
      <point x="332" y="75"/>
      <point x="305" y="52"/>
      <point x="272" y="52" type="curve" smooth="yes"/>
      <point x="240" y="52"/>
      <point x="220" y="84"/>
      <point x="220" y="150" type="curve" smooth="yes"/>
      <point x="220" y="550" type="line" smooth="yes"/>
      <point x="220" y="557"/>
      <point x="216" y="561"/>
      <point x="211" y="561" type="curve" smooth="yes"/>
      <point x="207" y="561"/>
      <point x="200" y="558"/>
      <point x="195" y="554" type="curve" smooth="yes"/>
      <point x="49" y="451" type="line" smooth="yes"/>
      <point x="45" y="448"/>
      <point x="43" y="448"/>
      <point x="41" y="448" type="curve" smooth="yes"/>
      <point x="1" y="448" type="line" smooth="yes"/>
      <point x="-1" y="448"/>
      <point x="-3" y="446"/>
      <point x="-3" y="444" type="curve" smooth="yes"/>
      <point x="-3" y="442"/>
      <point x="-2" y="440"/>
      <point x="3" y="439" type="curve" smooth="yes"/>
    </contour>
    <contour>
      <point x="168" y="431" type="line"/>
      <point x="168" y="431"/>
      <point x="296" y="431"/>
      <point x="327" y="431" type="curve" smooth="yes"/>
      <point x="336" y="431"/>
      <point x="342" y="437"/>
      <point x="342" y="444" type="curve" smooth="yes"/>
      <point x="342" y="447"/>
      <point x="340" y="448"/>
      <point x="337" y="448" type="curve" smooth="yes"/>
      <point x="321" y="448"/>
      <point x="174" y="448"/>
      <point x="174" y="448" type="curve"/>
    </contour>
  </outline>
</glyph>
<glyph name="u" format="2">
  <advance width="548"/>
  <unicode hex="0075"/>
  <anchor x="273" y="485" name="center"/>
  <outline>
    <contour>
      <point x="506" y="454" type="line" smooth="yes"/>
      <point x="506" y="456"/>
      <point x="504" y="458"/>
      <point x="502" y="458" type="curve" smooth="yes"/>
      <point x="500" y="458"/>
      <point x="497" y="458"/>
      <point x="492" y="456" type="curve" smooth="yes"/>
      <point x="290" y="395" type="line" smooth="yes"/>
      <point x="289" y="395"/>
      <point x="287" y="394"/>
      <point x="287" y="392" type="curve" smooth="yes"/>
      <point x="287" y="391"/>
      <point x="289" y="389"/>
      <point x="290" y="389" type="curve" smooth="yes"/>
      <point x="321" y="389" type="line" smooth="yes"/>
      <point x="323" y="389"/>
      <point x="324" y="388"/>
      <point x="324" y="386" type="curve" smooth="yes"/>
      <point x="324" y="11" type="line" smooth="yes"/>
      <point x="324" y="5"/>
      <point x="329" y="0"/>
      <point x="336" y="0" type="curve" smooth="yes"/>
      <point x="538" y="0" type="line" smooth="yes"/>
      <point x="541" y="0"/>
      <point x="543" y="1"/>
      <point x="543" y="4" type="curve" smooth="yes"/>
      <point x="543" y="6"/>
      <point x="541" y="8"/>
      <point x="539" y="8" type="curve" smooth="yes"/>
      <point x="518" y="13" type="line" smooth="yes"/>
      <point x="509" y="15"/>
      <point x="506" y="22"/>
      <point x="506" y="32" type="curve" smooth="yes"/>
    </contour>
    <contour>
      <point x="218" y="455" type="line" smooth="yes"/>
      <point x="218" y="458"/>
      <point x="217" y="459"/>
      <point x="214" y="459" type="curve" smooth="yes"/>
      <point x="211" y="459"/>
      <point x="209" y="458"/>
      <point x="204" y="457" type="curve" smooth="yes"/>
      <point x="12" y="403" type="line" smooth="yes"/>
      <point x="10" y="402"/>
      <point x="8" y="401"/>
      <point x="8" y="398" type="curve" smooth="yes"/>
      <point x="8" y="396"/>
      <point x="10" y="394"/>
      <point x="12" y="394" type="curve" smooth="yes"/>
      <point x="36" y="394" type="line" smooth="yes"/>
      <point x="37" y="394"/>
      <point x="38" y="393"/>
      <point x="38" y="391" type="curve" smooth="yes"/>
      <point x="38" y="108" type="line" smooth="yes"/>
      <point x="38" y="37.0"/>
      <point x="101" y="-10"/>
      <point x="182" y="-10" type="curve" smooth="yes"/>
      <point x="257.0" y="-10.0"/>
      <point x="294.0" y="9"/>
      <point x="340" y="68" type="curve"/>
      <point x="333" y="75" type="line"/>
      <point x="310.0" y="41.0"/>
      <point x="294.0" y="30.0"/>
      <point x="265" y="30" type="curve" smooth="yes"/>
      <point x="234" y="30"/>
      <point x="218.0" y="48.0"/>
      <point x="218" y="88" type="curve" smooth="yes"/>
    </contour>
  </outline>
</glyph>
<glyph name="v" format="2">
  <advance width="482"/>
  <unicode hex="0076"/>
  <outline>
    <contour>
      <point x="173" y="-6" type="curve" smooth="yes"/>
      <point x="307" y="-6" type="line" smooth="yes"/>
      <point x="312" y="-6"/>
      <point x="317" y="-4"/>
      <point x="318" y="1" type="curve" smooth="yes"/>
      <point x="412" y="342" type="line" smooth="yes"/>
      <point x="416" y="357"/>
      <point x="420" y="368"/>
      <point x="479" y="442" type="curve" smooth="yes"/>
      <point x="481" y="444"/>
      <point x="482" y="445"/>
      <point x="482" y="446" type="curve" smooth="yes"/>
      <point x="482" y="447"/>
      <point x="481" y="448"/>
      <point x="478" y="448" type="curve" smooth="yes"/>
      <point x="333" y="448" type="line" smooth="yes"/>
      <point x="331.0" y="448.0"/>
      <point x="330" y="447"/>
      <point x="330" y="445" type="curve" smooth="yes"/>
      <point x="330" y="443"/>
      <point x="331" y="442"/>
      <point x="333" y="440" type="curve" smooth="yes"/>
      <point x="401" y="357" type="line" smooth="yes"/>
      <point x="404" y="354"/>
      <point x="405" y="353"/>
      <point x="405" y="349" type="curve" smooth="yes"/>
      <point x="405" y="347"/>
      <point x="405" y="345"/>
      <point x="404" y="342" type="curve" smooth="yes"/>
      <point x="321" y="40" type="line" smooth="yes"/>
      <point x="325" y="43" type="line"/>
      <point x="218" y="408" type="line" smooth="yes"/>
      <point x="217" y="413"/>
      <point x="216" y="416"/>
      <point x="216" y="422" type="curve" smooth="yes"/>
      <point x="216" y="427"/>
      <point x="220" y="430"/>
      <point x="225" y="431" type="curve" smooth="yes"/>
      <point x="266" y="440" type="line" smooth="yes"/>
      <point x="270" y="441"/>
      <point x="271" y="442"/>
      <point x="271" y="444" type="curve" smooth="yes"/>
      <point x="271" y="446"/>
      <point x="270" y="448"/>
      <point x="267" y="448" type="curve" smooth="yes"/>
      <point x="4" y="448" type="line" smooth="yes"/>
      <point x="2" y="448"/>
      <point x="0" y="446"/>
      <point x="0" y="444" type="curve" smooth="yes"/>
      <point x="0" y="442"/>
      <point x="2" y="440"/>
      <point x="4" y="440" type="curve" smooth="yes"/>
      <point x="13" y="439"/>
      <point x="18" y="434"/>
      <point x="23" y="420" type="curve" smooth="yes"/>
      <point x="161" y="2" type="line" smooth="yes"/>
      <point x="163" y="-4"/>
      <point x="167" y="-6"/>
    </contour>
  </outline>
</glyph>
<glyph name="dieresis" format="2">
  <advance width="356"/>
  <unicode hex="00A8"/>
  <outline>
    <contour>
      <point x="105" y="421" type="curve" smooth="yes"/>
      <point x="156" y="421"/>
      <point x="198" y="469"/>
      <point x="198" y="529" type="curve" smooth="yes"/>
      <point x="198" y="587"/>
      <point x="156" y="633"/>
      <point x="105" y="633" type="curve" smooth="yes"/>
      <point x="53" y="633"/>
      <point x="11" y="587"/>
      <point x="11" y="529" type="curve" smooth="yes"/>
      <point x="11" y="469"/>
      <point x="53" y="421"/>
    </contour>
    <contour>
      <point x="269" y="421" type="curve" smooth="yes"/>
      <point x="321" y="421"/>
      <point x="362" y="469"/>
      <point x="362" y="529" type="curve" smooth="yes"/>
      <point x="362" y="587"/>
      <point x="321" y="633"/>
      <point x="269" y="633" type="curve" smooth="yes"/>
      <point x="217" y="633"/>
      <point x="176" y="587"/>
      <point x="176" y="529" type="curve" smooth="yes"/>
      <point x="176" y="469"/>
      <point x="217" y="421"/>
    </contour>
  </outline>
</glyph>
<glyph name="Aring" format="2">
  <advance width="780"/>
  <unicode hex="00C5"/>
  <outline>
    <contour>
      <point x="217" y="307" type="line"/>
      <point x="532" y="307" type="line"/>
      <point x="538" y="213" type="line"/>
      <point x="220" y="213" type="line"/>
    </contour>
    <contour>
      <point x="320" y="47" type="curve" smooth="yes"/>
      <point x="320" y="19"/>
      <point x="304" y="0"/>
      <point x="279" y="0" type="curve" smooth="yes"/>
      <point x="66" y="0" type="line" smooth="yes"/>
      <point x="29" y="0"/>
      <point x="14" y="14"/>
      <point x="14" y="51" type="curve" smooth="yes"/>
      <point x="14" y="69"/>
      <point x="28" y="90"/>
      <point x="51" y="110" type="curve" smooth="yes"/>
      <point x="94" y="145"/>
      <point x="127" y="202"/>
      <point x="142" y="261" type="curve" smooth="yes"/>
      <point x="272" y="752" type="line"/>
      <point x="361" y="646"/>
      <point x="446" y="647"/>
      <point x="531" y="760" type="curve"/>
      <point x="681" y="198" type="line" smooth="yes"/>
      <point x="688" y="168"/>
      <point x="705" y="125"/>
      <point x="737" y="102" type="curve" smooth="yes"/>
      <point x="764" y="81"/>
      <point x="767" y="69"/>
      <point x="767" y="46" type="curve" smooth="yes"/>
      <point x="767" y="16"/>
      <point x="745" y="0"/>
      <point x="709" y="0" type="curve" smooth="yes"/>
      <point x="461" y="0" type="line" smooth="yes"/>
      <point x="437" y="0"/>
      <point x="422" y="16"/>
      <point x="422" y="47" type="curve" smooth="yes"/>
      <point x="422" y="77"/>
      <point x="438" y="88"/>
      <point x="460" y="99" type="curve" smooth="yes"/>
      <point x="461" y="103" type="line" smooth="yes"/>
      <point x="472" y="109"/>
      <point x="481" y="132"/>
      <point x="473" y="166" type="curve" smooth="yes"/>
      <point x="400" y="514" type="line" smooth="yes"/>
      <point x="392" y="543"/>
      <point x="379" y="549"/>
      <point x="359" y="549" type="curve" smooth="yes"/>
      <point x="339" y="549"/>
      <point x="325" y="537"/>
      <point x="320" y="514" type="curve" smooth="yes"/>
      <point x="268" y="261" type="line" smooth="yes"/>
      <point x="249" y="187"/>
      <point x="241" y="142"/>
      <point x="273" y="117" type="curve" smooth="yes"/>
      <point x="286" y="106" type="line" smooth="yes"/>
      <point x="306" y="88"/>
      <point x="320" y="67"/>
    </contour>
    <component base="ring" xOffset="244" yOffset="101"/>
  </outline>
</glyph>
<glyph name="AE" format="2">
  <advance width="1000"/>
  <unicode hex="00C6"/>
  <anchor x="661" y="796" name="center"/>
  <outline>
    <contour>
      <point x="235" y="309" type="line"/>
      <point x="222" y="256" type="line"/>
      <point x="556" y="256" type="line"/>
      <point x="550" y="309" type="line"/>
    </contour>
    <contour>
      <point x="565" y="396" type="line"/>
      <point x="542" y="332" type="line"/>
      <point x="724" y="332" type="line" smooth="yes"/>
      <point x="770" y="332"/>
      <point x="795" y="331"/>
      <point x="805" y="302" type="curve" smooth="yes"/>
      <point x="831" y="263"/>
      <point x="840" y="250"/>
      <point x="861" y="250" type="curve" smooth="yes"/>
      <point x="883" y="250"/>
      <point x="899" y="262"/>
      <point x="899" y="285" type="curve" smooth="yes"/>
      <point x="899" y="299"/>
      <point x="895" y="316"/>
      <point x="894" y="321" type="curve" smooth="yes"/>
      <point x="862" y="427" type="line" smooth="yes"/>
      <point x="853" y="462"/>
      <point x="842" y="478"/>
      <point x="820" y="478" type="curve" smooth="yes"/>
      <point x="794" y="478"/>
      <point x="783" y="462"/>
      <point x="768" y="425" type="curve" smooth="yes"/>
      <point x="773" y="411"/>
      <point x="770" y="396"/>
      <point x="722" y="396" type="curve" smooth="yes"/>
    </contour>
    <contour>
      <point x="448" y="107" type="line" smooth="yes"/>
      <point x="448" y="90"/>
      <point x="442" y="81"/>
      <point x="424" y="78" type="curve" smooth="yes"/>
      <point x="384" y="73" type="line" smooth="yes"/>
      <point x="365" y="70"/>
      <point x="358" y="54"/>
      <point x="358" y="33" type="curve" smooth="yes"/>
      <point x="358" y="12"/>
      <point x="366" y="0"/>
      <point x="378" y="0" type="curve" smooth="yes"/>
      <point x="811" y="0" type="line" smooth="yes"/>
      <point x="830" y="0"/>
      <point x="839" y="-26"/>
      <point x="857" y="-26" type="curve" smooth="yes"/>
      <point x="886" y="-26"/>
      <point x="905" y="-8"/>
      <point x="924" y="48" type="curve" smooth="yes"/>
      <point x="975" y="179" type="line" smooth="yes"/>
      <point x="982" y="197"/>
      <point x="981" y="208"/>
      <point x="981" y="218" type="curve" smooth="yes"/>
      <point x="981" y="249"/>
      <point x="965" y="268"/>
      <point x="933" y="268" type="curve" smooth="yes"/>
      <point x="913" y="268"/>
      <point x="898" y="255"/>
      <point x="866" y="193" type="curve" smooth="yes"/>
      <point x="833" y="87"/>
      <point x="773" y="71"/>
      <point x="698" y="71" type="curve" smooth="yes"/>
      <point x="719" y="71" type="line" smooth="yes"/>
      <point x="663" y="71"/>
      <point x="632" y="109"/>
      <point x="632" y="166" type="curve" smooth="yes"/>
      <point x="632" y="645" type="line"/>
      <point x="638" y="645" type="line" smooth="yes"/>
      <point x="752" y="645"/>
      <point x="818" y="610"/>
      <point x="868" y="510" type="curve" smooth="yes"/>
      <point x="887" y="475"/>
      <point x="904" y="471"/>
      <point x="923" y="471" type="curve" smooth="yes"/>
      <point x="946" y="471"/>
      <point x="960" y="483"/>
      <point x="960" y="502" type="curve" smooth="yes"/>
      <point x="960" y="507"/>
      <point x="959" y="512"/>
      <point x="958" y="517" type="curve" smooth="yes"/>
      <point x="914" y="698" type="line" smooth="yes"/>
      <point x="910" y="718"/>
      <point x="890" y="732"/>
      <point x="874" y="732" type="curve" smooth="yes"/>
      <point x="858" y="732"/>
      <point x="848" y="730"/>
      <point x="833" y="720" type="curve" smooth="yes"/>
      <point x="815" y="705"/>
      <point x="806" y="700"/>
      <point x="783" y="700" type="curve" smooth="yes"/>
      <point x="345" y="700" type="line" smooth="yes"/>
      <point x="316" y="700"/>
      <point x="289" y="678"/>
      <point x="289" y="647" type="curve" smooth="yes"/>
      <point x="289" y="620"/>
      <point x="324" y="610"/>
      <point x="293" y="551" type="curve" smooth="yes"/>
      <point x="105" y="144" type="line" smooth="yes"/>
      <point x="85" y="101"/>
      <point x="62" y="83"/>
      <point x="23" y="69" type="curve" smooth="yes"/>
      <point x="12" y="64"/>
      <point x="14" y="47"/>
      <point x="14" y="32" type="curve" smooth="yes"/>
      <point x="14" y="9"/>
      <point x="24" y="0"/>
      <point x="48" y="0" type="curve" smooth="yes"/>
      <point x="199" y="0" type="line" smooth="yes"/>
      <point x="222" y="0"/>
      <point x="236" y="14"/>
      <point x="236" y="34" type="curve" smooth="yes"/>
      <point x="236" y="46"/>
      <point x="235" y="54"/>
      <point x="228" y="69" type="curve" smooth="yes"/>
      <point x="206" y="78" type="line" smooth="yes"/>
      <point x="170" y="95"/>
      <point x="188" y="146"/>
      <point x="182" y="141" type="curve" smooth="yes"/>
      <point x="401" y="607" type="line" smooth="yes"/>
      <point x="407" y="620"/>
      <point x="422" y="627"/>
      <point x="432" y="627" type="curve" smooth="yes"/>
      <point x="441" y="627"/>
      <point x="448" y="616"/>
      <point x="448" y="595" type="curve" smooth="yes"/>
    </contour>
  </outline>
</glyph>
<glyph name="dotlessi" format="2">
  <advance width="274"/>
  <unicode hex="0131"/>
  <outline>
    <contour>
      <point x="232" y="462" type="line" smooth="yes"/>
      <point x="232.0" y="466.0"/>
      <point x="230" y="470"/>
      <point x="225" y="470" type="curve" smooth="yes"/>
      <point x="221" y="470"/>
      <point x="218" y="469"/>
      <point x="212" y="468" type="curve" smooth="yes"/>
      <point x="22" y="425" type="line" smooth="yes"/>
      <point x="18" y="424"/>
      <point x="16" y="422"/>
      <point x="16" y="420" type="curve" smooth="yes"/>
      <point x="16" y="418"/>
      <point x="18" y="416"/>
      <point x="21" y="416" type="curve" smooth="yes"/>
      <point x="43" y="416" type="line" smooth="yes"/>
      <point x="49" y="416"/>
      <point x="51.0" y="412.0"/>
      <point x="51" y="406" type="curve" smooth="yes"/>
      <point x="51" y="29" type="line" smooth="yes"/>
      <point x="51" y="21"/>
      <point x="48" y="15"/>
      <point x="39" y="13" type="curve" smooth="yes"/>
      <point x="21" y="9" type="line" smooth="yes"/>
      <point x="17" y="8"/>
      <point x="14.0" y="6"/>
      <point x="14" y="4" type="curve" smooth="yes"/>
      <point x="14" y="2"/>
      <point x="16" y="0"/>
      <point x="20" y="0" type="curve" smooth="yes"/>
      <point x="263" y="0" type="line" smooth="yes"/>
      <point x="267.0" y="0.0"/>
      <point x="269.0" y="1"/>
      <point x="269" y="4" type="curve" smooth="yes"/>
      <point x="269.0" y="6"/>
      <point x="268" y="7"/>
      <point x="264" y="8" type="curve" smooth="yes"/>
      <point x="245" y="12" type="line" smooth="yes"/>
      <point x="237" y="14"/>
      <point x="232" y="22"/>
      <point x="232" y="31" type="curve" smooth="yes"/>
    </contour>
  </outline>
</glyph>
<glyph name="breve" format="2">
  <advance width="319"/>
  <unicode hex="02D8"/>
  <outline>
    <contour>
      <point x="178" y="522" type="curve" smooth="yes"/>
      <point x="287" y="522"/>
      <point x="332" y="587"/>
      <point x="332" y="670" type="curve" smooth="yes"/>
      <point x="332" y="686"/>
      <point x="325" y="696"/>
      <point x="314" y="696" type="curve" smooth="yes"/>
      <point x="298" y="696"/>
      <point x="285" y="681"/>
      <point x="265" y="668" type="curve" smooth="yes"/>
      <point x="235" y="634"/>
      <point x="223" y="614"/>
      <point x="178" y="614" type="curve" smooth="yes"/>
      <point x="129" y="614"/>
      <point x="122" y="631"/>
      <point x="90" y="667" type="curve" smooth="yes"/>
      <point x="69" y="687"/>
      <point x="61" y="696"/>
      <point x="40" y="696" type="curve" smooth="yes"/>
      <point x="32" y="696"/>
      <point x="23" y="686"/>
      <point x="23" y="669" type="curve" smooth="yes"/>
      <point x="23" y="565"/>
      <point x="92" y="522"/>
    </contour>
  </outline>
</glyph>
<glyph name="hungarumlaut" format="2">
  <advance width="502"/>
  <unicode hex="02DD"/>
  <anchor x="131" y="507" name="center"/>
  <outline>
    <contour>
      <point x="131" y="570" type="curve" smooth="yes"/>
      <point x="228" y="666" type="line" smooth="yes"/>
      <point x="280" y="706"/>
      <point x="327" y="729"/>
      <point x="360" y="729" type="curve" smooth="yes"/>
      <point x="404" y="729"/>
      <point x="420" y="715"/>
      <point x="420" y="682" type="curve" smooth="yes"/>
      <point x="420" y="652"/>
      <point x="387" y="631"/>
      <point x="335" y="608" type="curve" smooth="yes"/>
      <point x="197" y="525" type="line" smooth="yes"/>
      <point x="169" y="516"/>
      <point x="151" y="513"/>
      <point x="136" y="513" type="curve" smooth="yes"/>
      <point x="121" y="513"/>
      <point x="111" y="525"/>
      <point x="111" y="537" type="curve" smooth="yes"/>
      <point x="111" y="548"/>
      <point x="118" y="560"/>
    </contour>
    <contour>
      <point x="109" y="570" type="curve" smooth="yes"/>
      <point x="207" y="666" type="line" smooth="yes"/>
      <point x="258" y="706"/>
      <point x="305" y="729"/>
      <point x="338" y="729" type="curve" smooth="yes"/>
      <point x="382" y="729"/>
      <point x="398" y="715"/>
      <point x="398" y="682" type="curve" smooth="yes"/>
      <point x="398" y="652"/>
      <point x="365" y="631"/>
      <point x="313" y="608" type="curve" smooth="yes"/>
      <point x="175" y="525" type="line" smooth="yes"/>
      <point x="148" y="516"/>
      <point x="129" y="513"/>
      <point x="114" y="513" type="curve" smooth="yes"/>
      <point x="99" y="513"/>
      <point x="89" y="525"/>
      <point x="89" y="537" type="curve" smooth="yes"/>
      <point x="89" y="548"/>
      <point x="96" y="560"/>
    </contour>
  </outline>
</glyph>
<glyph name="guilsinglleft" format="2">
  <advance width="324"/>
  <unicode hex="2039"/>
  <outline>
    <contour>
      <point x="10" y="248" type="curve" smooth="yes"/>
      <point x="10" y="244"/>
      <point x="10" y="236"/>
      <point x="22" y="233" type="curve" smooth="yes"/>
      <point x="90" y="202"/>
      <point x="175" y="134"/>
      <point x="226" y="65" type="curve" smooth="yes"/>
      <point x="238" y="48"/>
      <point x="247" y="42"/>
      <point x="257" y="42" type="curve" smooth="yes"/>
      <point x="273" y="42"/>
      <point x="284" y="50"/>
      <point x="284" y="66" type="curve" smooth="yes"/>
      <point x="284" y="77"/>
      <point x="282" y="86"/>
      <point x="276" y="101" type="curve" smooth="yes"/>
      <point x="266" y="134"/>
      <point x="223" y="213"/>
      <point x="181" y="270" type="curve"/>
      <point x="181" y="242" type="line"/>
      <point x="217" y="304"/>
      <point x="259" y="374"/>
      <point x="273" y="398" type="curve" smooth="yes"/>
      <point x="279" y="413"/>
      <point x="284" y="422"/>
      <point x="284" y="433" type="curve" smooth="yes"/>
      <point x="284" y="449"/>
      <point x="276" y="458"/>
      <point x="266" y="458" type="curve" smooth="yes"/>
      <point x="254" y="458"/>
      <point x="241" y="450"/>
      <point x="229" y="432" type="curve" smooth="yes"/>
      <point x="175" y="358"/>
      <point x="84" y="286"/>
      <point x="22" y="263" type="curve" smooth="yes"/>
      <point x="12" y="264"/>
      <point x="10" y="252"/>
    </contour>
  </outline>
</glyph>
<glyph name="fraction" format="2">
  <advance width="666"/>
  <unicode hex="2044"/>
  <outline>
    <contour>
      <point x="570" y="544" type="curve" smooth="yes"/>
      <point x="594" y="569"/>
      <point x="610" y="596"/>
      <point x="610" y="624" type="curve" smooth="yes"/>
      <point x="610" y="653"/>
      <point x="587" y="676"/>
      <point x="554" y="676" type="curve" smooth="yes"/>
      <point x="518" y="676"/>
      <point x="486" y="659"/>
      <point x="458" y="617" type="curve" smooth="yes"/>
      <point x="443" y="586"/>
      <point x="450" y="534"/>
      <point x="321" y="359" type="curve" smooth="yes"/>
      <point x="183" y="171"/>
      <point x="94" y="166"/>
      <point x="91" y="157" type="curve" smooth="yes"/>
      <point x="54" y="117"/>
      <point x="36" y="87"/>
      <point x="36" y="45" type="curve" smooth="yes"/>
      <point x="36" y="8"/>
      <point x="61" y="-8"/>
      <point x="96" y="-8" type="curve" smooth="yes"/>
      <point x="142" y="-8"/>
      <point x="177" y="21"/>
      <point x="210" y="66" type="curve" smooth="yes"/>
      <point x="220" y="85"/>
      <point x="228" y="175"/>
      <point x="350" y="337" type="curve" smooth="yes"/>
      <point x="477" y="509"/>
      <point x="542" y="515"/>
    </contour>
  </outline>
</glyph>
<glyph name="turkishlira" format="2">
  <advance width="620"/>
  <unicode hex="20BA"/>
  <outline>
    <contour>
      <point x="350" y="60" type="curve" smooth="yes"/>
      <point x="316" y="60"/>
      <point x="301" y="79"/>
      <point x="301" y="118" type="curve" smooth="yes"/>
      <point x="301" y="549" type="line" smooth="yes"/>
      <point x="301" y="566"/>
      <point x="308" y="574"/>
      <point x="326" y="578" type="curve" smooth="yes"/>
      <point x="385" y="591" type="line" smooth="yes"/>
      <point x="402" y="596"/>
      <point x="410" y="606"/>
      <point x="410" y="617" type="curve" smooth="yes"/>
      <point x="410" y="632"/>
      <point x="397" y="639"/>
      <point x="385" y="639" type="curve" smooth="yes"/>
      <point x="70" y="639" type="line" smooth="yes"/>
      <point x="54" y="639"/>
      <point x="42" y="632"/>
      <point x="42" y="616" type="curve" smooth="yes"/>
      <point x="42" y="601"/>
      <point x="49" y="596"/>
      <point x="69" y="591" type="curve" smooth="yes"/>
      <point x="119" y="578" type="line" smooth="yes"/>
      <point x="135" y="573"/>
      <point x="141" y="558"/>
      <point x="141" y="531" type="curve" smooth="yes"/>
      <point x="141" y="101" type="line" smooth="yes"/>
      <point x="141" y="76"/>
      <point x="131" y="61"/>
      <point x="117" y="57" type="curve" smooth="yes"/>
      <point x="70" y="48" type="line" smooth="yes"/>
      <point x="53" y="43"/>
      <point x="42" y="36"/>
      <point x="42" y="24" type="curve" smooth="yes"/>
      <point x="42" y="8"/>
      <point x="53" y="0"/>
      <point x="70" y="0" type="curve" smooth="yes"/>
      <point x="352" y="0" type="line" smooth="yes"/>
      <point x="520" y="0"/>
      <point x="615" y="96"/>
      <point x="609" y="223" type="curve" smooth="yes"/>
      <point x="607" y="279"/>
      <point x="572" y="315"/>
      <point x="521" y="315" type="curve" smooth="yes"/>
      <point x="450" y="315"/>
      <point x="418" y="290"/>
      <point x="418" y="232" type="curve" smooth="yes"/>
      <point x="418" y="220"/>
      <point x="432" y="199"/>
      <point x="451" y="202" type="curve" smooth="yes"/>
      <point x="454" y="206" type="line" smooth="yes"/>
      <point x="473" y="194"/>
      <point x="475" y="175"/>
      <point x="475" y="166" type="curve" smooth="yes"/>
      <point x="476" y="102"/>
      <point x="440" y="60"/>
    </contour>
    <contour>
      <point x="55" y="289" type="curve" smooth="yes"/>
      <point x="36" y="283"/>
      <point x="31" y="268"/>
      <point x="35" y="255" type="curve" smooth="yes"/>
      <point x="39" y="243"/>
      <point x="53" y="233"/>
      <point x="72" y="239" type="curve" smooth="yes"/>
      <point x="91" y="247"/>
      <point x="124" y="277"/>
      <point x="234" y="315" type="curve" smooth="yes"/>
      <point x="344" y="352"/>
      <point x="390" y="349"/>
      <point x="408" y="355" type="curve" smooth="yes"/>
      <point x="426" y="362"/>
      <point x="430" y="377"/>
      <point x="426" y="389" type="curve" smooth="yes"/>
      <point x="422" y="401"/>
      <point x="410" y="411"/>
      <point x="391" y="405" type="curve" smooth="yes"/>
      <point x="373" y="399"/>
      <point x="338" y="368"/>
      <point x="229" y="330" type="curve" smooth="yes"/>
      <point x="119" y="292"/>
      <point x="75" y="295"/>
    </contour>
    <contour>
      <point x="51" y="404" type="curve" smooth="yes"/>
      <point x="33" y="398"/>
      <point x="28" y="382"/>
      <point x="32" y="371" type="curve" smooth="yes"/>
      <point x="36" y="358"/>
      <point x="49" y="349"/>
      <point x="68" y="355" type="curve" smooth="yes"/>
      <point x="88" y="362"/>
      <point x="121" y="392"/>
      <point x="231" y="430" type="curve" smooth="yes"/>
      <point x="340" y="468"/>
      <point x="387" y="465"/>
      <point x="405" y="471" type="curve" smooth="yes"/>
      <point x="424" y="477"/>
      <point x="427" y="492"/>
      <point x="423" y="504" type="curve" smooth="yes"/>
      <point x="419" y="517"/>
      <point x="407" y="526"/>
      <point x="389" y="520" type="curve" smooth="yes"/>
      <point x="371" y="513"/>
      <point x="335" y="483"/>
      <point x="226" y="445" type="curve" smooth="yes"/>
      <point x="116" y="407"/>
      <point x="71" y="411"/>
    </contour>
  </outline>
</glyph>
<glyph name="circumflex.case" format="2">
  <outline>
    <contour>
      <point x="48" y="770" type="curve" smooth="yes"/>
      <point x="80" y="809" type="line" smooth="yes"/>
      <point x="122" y="858"/>
      <point x="161" y="871"/>
      <point x="209" y="871" type="curve" smooth="yes"/>
      <point x="253" y="871"/>
      <point x="293" y="858"/>
      <point x="338" y="808" type="curve" smooth="yes"/>
      <point x="371" y="770" type="line" smooth="yes"/>
      <point x="380" y="761"/>
      <point x="392" y="748"/>
      <point x="392" y="735" type="curve" smooth="yes"/>
      <point x="392" y="719"/>
      <point x="381" y="710"/>
      <point x="359" y="710" type="curve" smooth="yes"/>
      <point x="341" y="710"/>
      <point x="327" y="714"/>
      <point x="296" y="732" type="curve" smooth="yes"/>
      <point x="168" y="799" type="line"/>
      <point x="251" y="799" type="line"/>
      <point x="122" y="732" type="line" smooth="yes"/>
      <point x="94" y="715"/>
      <point x="78" y="712"/>
      <point x="60" y="712" type="curve" smooth="yes"/>
      <point x="38" y="712"/>
      <point x="27" y="720"/>
      <point x="27" y="737" type="curve" smooth="yes"/>
      <point x="27" y="750"/>
      <point x="39" y="761"/>
    </contour>
  </outline>
</glyph>
<glyph name="eight.case" format="2">
  <advance width="583"/>
  <outline>
    <contour>
      <point x="268" y="-9" type="curve" smooth="yes"/>
      <point x="453" y="-9"/>
      <point x="576" y="73"/>
      <point x="576" y="191" type="curve" smooth="yes"/>
      <point x="576" y="274"/>
      <point x="514" y="357"/>
      <point x="366" y="414" type="curve" smooth="yes"/>
      <point x="243" y="462"/>
      <point x="188" y="493"/>
      <point x="188" y="559" type="curve" smooth="yes"/>
      <point x="188" y="631"/>
      <point x="223" y="681"/>
      <point x="267" y="681" type="curve" smooth="yes"/>
      <point x="336" y="681"/>
      <point x="373" y="627"/>
      <point x="373" y="572" type="curve" smooth="yes"/>
      <point x="373" y="501"/>
      <point x="345" y="417"/>
      <point x="302" y="391" type="curve"/>
      <point x="353" y="365" type="line"/>
      <point x="477" y="396"/>
      <point x="574" y="470"/>
      <point x="574" y="559" type="curve" smooth="yes"/>
      <point x="574" y="671"/>
      <point x="441" y="742"/>
      <point x="273" y="742" type="curve" smooth="yes"/>
      <point x="67" y="742"/>
      <point x="-10" y="644"/>
      <point x="-10" y="531" type="curve" smooth="yes"/>
      <point x="-10" y="426"/>
      <point x="73" y="346"/>
      <point x="246" y="279" type="curve" smooth="yes"/>
      <point x="342" y="239"/>
      <point x="374" y="205"/>
      <point x="374" y="165" type="curve" smooth="yes"/>
      <point x="374" y="97"/>
      <point x="328" y="52"/>
      <point x="271" y="52" type="curve" smooth="yes"/>
      <point x="220" y="52"/>
      <point x="179" y="77"/>
      <point x="179" y="145" type="curve" smooth="yes"/>
      <point x="179" y="211"/>
      <point x="204" y="276"/>
      <point x="260" y="303" type="curve"/>
      <point x="209" y="312" type="line"/>
      <point x="80" y="289"/>
      <point x="-1" y="222"/>
      <point x="-1" y="147" type="curve" smooth="yes"/>
      <point x="-1" y="50"/>
      <point x="110" y="-9"/>
    </contour>
  </outline>
</glyph>
<glyph name="m.alt" format="2">
  <advance width="856"/>
  <outline>
    <contour>
      <point x="218" y="339" type="line" smooth="yes"/>
      <point x="236" y="356" type="line" smooth="yes"/>
      <point x="252" y="371"/>
      <point x="269" y="379"/>
      <point x="293" y="379" type="curve" smooth="yes"/>
      <point x="321" y="379"/>
      <point x="341" y="354"/>
      <point x="341" y="319" type="curve" smooth="yes"/>
      <point x="341" y="36" type="line" smooth="yes"/>
      <point x="341" y="23"/>
      <point x="338" y="14"/>
      <point x="326" y="11" type="curve" smooth="yes"/>
      <point x="313" y="8" type="line" smooth="yes"/>
      <point x="309" y="7"/>
      <point x="308" y="6"/>
      <point x="308" y="4" type="curve" smooth="yes"/>
      <point x="308" y="1"/>
      <point x="309" y="0"/>
      <point x="312" y="0" type="curve" smooth="yes"/>
      <point x="538" y="0" type="line" smooth="yes"/>
      <point x="543" y="0"/>
      <point x="546" y="2"/>
      <point x="546" y="4" type="curve" smooth="yes"/>
      <point x="546" y="7"/>
      <point x="543" y="8"/>
      <point x="540" y="9" type="curve" smooth="yes"/>
      <point x="528" y="12" type="line" smooth="yes"/>
      <point x="522" y="13"/>
      <point x="519" y="17"/>
      <point x="519" y="25" type="curve" smooth="yes"/>
      <point x="519" y="339" type="line" smooth="yes"/>
      <point x="519" y="423"/>
      <point x="477" y="458"/>
      <point x="416" y="458" type="curve" smooth="yes"/>
      <point x="367" y="458"/>
      <point x="302" y="431"/>
      <point x="230" y="363" type="curve" smooth="yes"/>
      <point x="211" y="345" type="line"/>
    </contour>
    <contour>
      <point x="232" y="447" type="line" smooth="yes"/>
      <point x="232" y="451"/>
      <point x="230" y="455"/>
      <point x="225" y="455" type="curve" smooth="yes"/>
      <point x="221" y="455"/>
      <point x="218" y="454"/>
      <point x="212" y="453" type="curve" smooth="yes"/>
      <point x="22" y="410" type="line" smooth="yes"/>
      <point x="18" y="409"/>
      <point x="16" y="407"/>
      <point x="16" y="405" type="curve" smooth="yes"/>
      <point x="16" y="403"/>
      <point x="18" y="401"/>
      <point x="21" y="401" type="curve" smooth="yes"/>
      <point x="43" y="401" type="line" smooth="yes"/>
      <point x="49" y="401"/>
      <point x="51" y="397"/>
      <point x="51" y="391" type="curve" smooth="yes"/>
      <point x="51" y="29" type="line" smooth="yes"/>
      <point x="51" y="21"/>
      <point x="48" y="15"/>
      <point x="39" y="13" type="curve" smooth="yes"/>
      <point x="21" y="9" type="line" smooth="yes"/>
      <point x="17" y="8"/>
      <point x="14" y="6"/>
      <point x="14" y="4" type="curve" smooth="yes"/>
      <point x="14" y="2"/>
      <point x="16" y="0"/>
      <point x="20" y="0" type="curve" smooth="yes"/>
      <point x="263" y="0" type="line" smooth="yes"/>
      <point x="267" y="0"/>
      <point x="269" y="1"/>
      <point x="269" y="4" type="curve" smooth="yes"/>
      <point x="269" y="6"/>
      <point x="268" y="7"/>
      <point x="264" y="8" type="curve" smooth="yes"/>
      <point x="245" y="12" type="line" smooth="yes"/>
      <point x="237" y="14"/>
      <point x="232" y="22"/>
      <point x="232" y="31" type="curve" smooth="yes"/>
    </contour>
    <contour>
      <point x="505" y="339" type="line" smooth="yes"/>
      <point x="523" y="356" type="line" smooth="yes"/>
      <point x="539" y="371"/>
      <point x="556" y="379"/>
      <point x="580" y="379" type="curve" smooth="yes"/>
      <point x="608" y="379"/>
      <point x="628" y="354"/>
      <point x="628" y="319" type="curve" smooth="yes"/>
      <point x="628" y="36" type="line" smooth="yes"/>
      <point x="628.0" y="23.0"/>
      <point x="625" y="14"/>
      <point x="613" y="11" type="curve" smooth="yes"/>
      <point x="600" y="8" type="line" smooth="yes"/>
      <point x="596" y="7"/>
      <point x="595.0" y="6"/>
      <point x="595" y="4" type="curve" smooth="yes"/>
      <point x="595.0" y="1"/>
      <point x="596" y="0"/>
      <point x="599" y="0" type="curve" smooth="yes"/>
      <point x="825" y="0" type="line" smooth="yes"/>
      <point x="830" y="0"/>
      <point x="833.0" y="2"/>
      <point x="833" y="4" type="curve" smooth="yes"/>
      <point x="833.0" y="7"/>
      <point x="830" y="8"/>
      <point x="827" y="9" type="curve" smooth="yes"/>
      <point x="815" y="12" type="line" smooth="yes"/>
      <point x="809" y="13"/>
      <point x="806.0" y="17.0"/>
      <point x="806" y="25" type="curve" smooth="yes"/>
      <point x="806" y="339" type="line" smooth="yes"/>
      <point x="806" y="423"/>
      <point x="764" y="458"/>
      <point x="703" y="458" type="curve" smooth="yes"/>
      <point x="654" y="458"/>
      <point x="589" y="431"/>
      <point x="517" y="363" type="curve" smooth="yes"/>
      <point x="498" y="345" type="line"/>
    </contour>
  </outline>
</glyph>
<glyph name="macronbelow" format="2">
  <outline>
    <contour>
      <point x="5" y="-158" type="curve" smooth="yes"/>
      <point x="5" y="-184"/>
      <point x="20" y="-201"/>
      <point x="45" y="-201" type="curve" smooth="yes"/>
      <point x="330" y="-201" type="line" smooth="yes"/>
      <point x="354" y="-201"/>
      <point x="370" y="-184"/>
      <point x="370" y="-158" type="curve" smooth="yes"/>
      <point x="370" y="-131"/>
      <point x="353" y="-113"/>
      <point x="330" y="-113" type="curve" smooth="yes"/>
      <point x="46" y="-113" type="line" smooth="yes"/>
      <point x="22" y="-113"/>
      <point x="5" y="-131"/>
    </contour>
  </outline>
</glyph>
<glyph name="n.alt" format="2">
  <advance width="563"/>
  <outline>
    <contour>
      <point x="218" y="339" type="line" smooth="yes"/>
      <point x="236" y="356" type="line" smooth="yes"/>
      <point x="252" y="371"/>
      <point x="269" y="379"/>
      <point x="293" y="379" type="curve" smooth="yes"/>
      <point x="321" y="379"/>
      <point x="341" y="354"/>
      <point x="341" y="319" type="curve" smooth="yes"/>
      <point x="341" y="36" type="line" smooth="yes"/>
      <point x="341.0" y="23.0"/>
      <point x="338" y="14"/>
      <point x="326" y="11" type="curve" smooth="yes"/>
      <point x="313" y="8" type="line" smooth="yes"/>
      <point x="308.9538913876676" y="7.066282627923304"/>
      <point x="308.0" y="6"/>
      <point x="308" y="4" type="curve" smooth="yes"/>
      <point x="308.0" y="1"/>
      <point x="309.3333333333333" y="0"/>
      <point x="312" y="0" type="curve" smooth="yes"/>
      <point x="538" y="0" type="line" smooth="yes"/>
      <point x="543" y="0"/>
      <point x="546.0" y="1.7142857142857144"/>
      <point x="546" y="4" type="curve" smooth="yes"/>
      <point x="546.0" y="7.125"/>
      <point x="543.0678599553895" y="8.23303501115263"/>
      <point x="540" y="9" type="curve" smooth="yes"/>
      <point x="528" y="12" type="line" smooth="yes"/>
      <point x="522" y="13"/>
      <point x="519.0" y="17.0"/>
      <point x="519" y="25" type="curve" smooth="yes"/>
      <point x="519" y="339" type="line" smooth="yes"/>
      <point x="519" y="423"/>
      <point x="477" y="458"/>
      <point x="416" y="458" type="curve" smooth="yes"/>
      <point x="367" y="458"/>
      <point x="302" y="431"/>
      <point x="230" y="363" type="curve" smooth="yes"/>
      <point x="211" y="345" type="line"/>
    </contour>
    <component base="dotlessi"/>
  </outline>
</glyph>
<glyph name="nine.case" format="2">
  <advance width="605"/>
  <outline>
    <contour>
      <point x="247" y="-14" type="curve" smooth="yes"/>
      <point x="456" y="-14"/>
      <point x="617" y="123"/>
      <point x="617" y="413" type="curve" smooth="yes"/>
      <point x="617" y="612"/>
      <point x="490" y="739"/>
      <point x="308" y="739" type="curve" smooth="yes"/>
      <point x="114" y="739"/>
      <point x="2" y="643"/>
      <point x="2" y="475" type="curve" smooth="yes"/>
      <point x="2" y="346"/>
      <point x="109" y="280"/>
      <point x="242" y="280" type="curve" smooth="yes"/>
      <point x="359" y="280"/>
      <point x="466" y="338"/>
      <point x="466" y="500" type="curve"/>
      <point x="407" y="515" type="line"/>
      <point x="407" y="388"/>
      <point x="352" y="343"/>
      <point x="305" y="343" type="curve" smooth="yes"/>
      <point x="236" y="343"/>
      <point x="193" y="399"/>
      <point x="193" y="491" type="curve" smooth="yes"/>
      <point x="193" y="615"/>
      <point x="238" y="675"/>
      <point x="296" y="675" type="curve" smooth="yes"/>
      <point x="365" y="675"/>
      <point x="405" y="595"/>
      <point x="405" y="413" type="curve" smooth="yes"/>
      <point x="405" y="157"/>
      <point x="363" y="50"/>
      <point x="296" y="50" type="curve" smooth="yes"/>
      <point x="243" y="50"/>
      <point x="216" y="87"/>
      <point x="216" y="140" type="curve" smooth="yes"/>
      <point x="216" y="169" type="line" smooth="yes"/>
      <point x="216" y="243"/>
      <point x="175" y="286"/>
      <point x="112" y="286" type="curve" smooth="yes"/>
      <point x="42" y="286"/>
      <point x="4" y="245"/>
      <point x="4" y="173" type="curve" smooth="yes"/>
      <point x="4" y="74"/>
      <point x="104" y="-14"/>
    </contour>
  </outline>
</glyph>
<glyph name="ogonek.case" format="2">
  <outline>
    <contour>
      <point x="166" y="43" type="line"/>
      <point x="20" y="-30"/>
      <point x="-42" y="-77"/>
      <point x="-42" y="-150" type="curve" smooth="yes"/>
      <point x="-42" y="-209"/>
      <point x="15" y="-251"/>
      <point x="110" y="-251" type="curve" smooth="yes"/>
      <point x="211" y="-251"/>
      <point x="273" y="-210"/>
      <point x="273" y="-156" type="curve" smooth="yes"/>
      <point x="273" y="-119"/>
      <point x="251" y="-96"/>
      <point x="217" y="-96" type="curve" smooth="yes"/>
      <point x="182" y="-96"/>
      <point x="157" y="-124"/>
      <point x="157" y="-169" type="curve" smooth="yes"/>
      <point x="157" y="-188"/>
      <point x="143" y="-198"/>
      <point x="125" y="-198" type="curve" smooth="yes"/>
      <point x="107" y="-198"/>
      <point x="93" y="-179"/>
      <point x="93" y="-138" type="curve" smooth="yes"/>
      <point x="93" y="-81"/>
      <point x="133" y="-36"/>
      <point x="195" y="2" type="curve"/>
    </contour>
  </outline>
</glyph>
<glyph name="s.alt" format="2">
  <advance width="426"/>
  <outline>
    <contour>
      <point x="206" y="447" type="curve" smooth="yes"/>
      <point x="263" y="447.0"/>
      <point x="314" y="403"/>
      <point x="383" y="300" type="curve" smooth="yes"/>
      <point x="386.0" y="296.0"/>
      <point x="388" y="294"/>
      <point x="390" y="294" type="curve" smooth="yes"/>
      <point x="393.0" y="294.0"/>
      <point x="394.0" y="297.0"/>
      <point x="394" y="301" type="curve" smooth="yes"/>
      <point x="394.0" y="302"/>
      <point x="394" y="306"/>
      <point x="393" y="310" type="curve" smooth="yes"/>
      <point x="375" y="441" type="line" smooth="yes"/>
      <point x="374" y="451"/>
      <point x="369" y="455"/>
      <point x="363" y="455" type="curve" smooth="yes"/>
      <point x="352" y="455"/>
      <point x="291" y="427"/>
      <point x="283" y="427" type="curve" smooth="yes"/>
      <point x="278" y="427.0"/>
      <point x="245" y="458.0"/>
      <point x="186" y="458" type="curve" smooth="yes"/>
      <point x="89" y="458.0"/>
      <point x="9.0" y="401.0"/>
      <point x="9" y="307" type="curve" smooth="yes"/>
      <point x="9" y="234"/>
      <point x="50" y="175"/>
      <point x="170" y="142" type="curve" smooth="yes"/>
      <point x="262" y="117"/>
      <point x="285.0" y="92"/>
      <point x="285" y="55" type="curve" smooth="yes"/>
      <point x="285.0" y="21"/>
      <point x="262.0" y="-2.0"/>
      <point x="218" y="-2" type="curve" smooth="yes"/>
      <point x="145.0" y="-2.0"/>
      <point x="97" y="31"/>
      <point x="26" y="165" type="curve" smooth="yes"/>
      <point x="24" y="168"/>
      <point x="22" y="169"/>
      <point x="21" y="169" type="curve" smooth="yes"/>
      <point x="18" y="169"/>
      <point x="16" y="166"/>
      <point x="16" y="164" type="curve" smooth="yes"/>
      <point x="16" y="162"/>
      <point x="16" y="161"/>
      <point x="17" y="156" type="curve" smooth="yes"/>
      <point x="39" y="-3" type="line" smooth="yes"/>
      <point x="40" y="-9"/>
      <point x="44" y="-10"/>
      <point x="48" y="-10" type="curve" smooth="yes"/>
      <point x="59" y="-10.0"/>
      <point x="117" y="12.0"/>
      <point x="130" y="12" type="curve" smooth="yes"/>
      <point x="137" y="12.0"/>
      <point x="163" y="-10"/>
      <point x="236" y="-10.0" type="curve" smooth="yes"/>
      <point x="345.0" y="-10.0"/>
      <point x="413.0" y="41.0"/>
      <point x="413" y="135" type="curve" smooth="yes"/>
      <point x="413" y="216"/>
      <point x="374" y="271"/>
      <point x="236" y="316" type="curve" smooth="yes"/>
      <point x="162.0" y="340.0"/>
      <point x="140.0" y="363.0"/>
      <point x="140" y="396" type="curve" smooth="yes"/>
      <point x="140.0" y="427.0"/>
      <point x="164" y="447.0"/>
    </contour>
  </outline>
</glyph>
